<?xml version="1.0" encoding="UTF-8"?>
<svg xmlns="http://www.w3.org/2000/svg" xmlns:xlink="http://www.w3.org/1999/xlink" viewBox="0 0 411.56 96.77">
  <defs>
    <style>
      .cls-1 {
        fill: url(#_15);
      }

      .cls-2 {
        fill: url(#_16-3);
      }

      .cls-2, .cls-3, .cls-4, .cls-5 {
        mix-blend-mode: color-dodge;
        opacity: .5;
      }

      .cls-3 {
        fill: url(#_16-2);
      }

      .cls-4 {
        fill: url(#_16-4);
      }

      .cls-6 {
        fill: #fff;
      }

      .cls-7 {
        fill: #c86b34;
      }

      .cls-8 {
        fill: url(#_15-2);
      }

      .cls-9 {
        fill: url(#_4);
      }

      .cls-9, .cls-10 {
        mix-blend-mode: multiply;
        opacity: .7;
      }

      .cls-11 {
        isolation: isolate;
      }

      .cls-5 {
        fill: url(#_16);
      }

      .cls-10 {
        fill: url(#_4-2);
      }
    </style>
    <linearGradient id="_15" data-name="  15" x1="205.78" y1="96.76" x2="205.78" y2="0" gradientUnits="userSpaceOnUse">
      <stop offset="0" stop-color="#b55014"/>
      <stop offset=".39" stop-color="#c86b34"/>
      <stop offset="1" stop-color="#ffa733"/>
    </linearGradient>
    <linearGradient id="_15-2" data-name="  15" y1="-5.32" y2="94.57" xlink:href="#_15"/>
    <linearGradient id="_4" data-name="  4" x1="205.78" y1="23.94" x2="205.78" y2="-18.16" gradientUnits="userSpaceOnUse">
      <stop offset="0" stop-color="#ee8b1d"/>
      <stop offset="1" stop-color="#8b2c1b"/>
    </linearGradient>
    <linearGradient id="_4-2" data-name="  4" x1="204.73" y1="96.77" x2="204.73" y2="92.47" xlink:href="#_4"/>
    <linearGradient id="_16" data-name="  16" x1="211.99" y1="88.62" x2="211.99" y2="85.67" gradientUnits="userSpaceOnUse">
      <stop offset="0" stop-color="#e9bb38"/>
      <stop offset="1" stop-color="#fff09c"/>
    </linearGradient>
    <linearGradient id="_16-2" data-name="  16" x1="207.16" y1="4.59" x2="207.16" y2="0" xlink:href="#_16"/>
    <linearGradient id="_16-3" data-name="  16" x1="32.53" y1="11.17" x2="32.53" y2="0" xlink:href="#_16"/>
    <linearGradient id="_16-4" data-name="  16" x1="385.54" y1="15.24" x2="385.54" y2=".31" xlink:href="#_16"/>
  </defs>
  <g class="cls-11">
    <g id="Calque_2" data-name="Calque 2">
      <g id="frame">
        <g>
          <rect class="cls-7" x="11.1" y="8.48" width="393.75" height="79.81" rx="35.15" ry="35.15"/>
          <g>
            <path class="cls-1" d="m399.91,15.24c-.56-.63-1.14-1.24-1.74-1.84-7.09-7.09-16.5-11.87-26.99-13.09-1.76-.2-3.55-.31-5.36-.31H47.85c-11.66,0-22.34,4.17-30.64,11.1C6.69,19.87,0,33.08,0,47.86c0,27.01,21.9,48.91,48.91,48.91h311.63c28.18,0,51.02-22.84,51.02-51.01,0-11.72-4.41-22.41-11.66-30.51Zm-36.73,70.42H48.38c-20.59,0-37.28-16.69-37.28-37.28h0c0-20.59,16.69-37.29,37.28-37.29h314.8c20.59,0,37.28,16.69,37.28,37.28h0c0,20.59-16.69,37.28-37.28,37.28Z"/>
            <path class="cls-8" d="m404.22,37.15c-3.22-17.32-18.41-30.44-36.66-30.44H44c-18.26,0-33.45,13.12-36.66,30.45-.41,2.22-.63,4.5-.63,6.84v8.76c0,20.59,16.69,37.28,37.28,37.28h320.13c22.48,0,40.71-18.22,40.71-40.71v-5.34c0-2.34-.22-4.63-.63-6.85Zm-3.75,11.23c0,20.59-16.69,37.28-37.28,37.28H48.38c-20.59,0-37.28-16.69-37.28-37.28h0c0-13.68,7.37-25.64,18.35-32.13,5.55-3.27,12.02-5.15,18.93-5.15h314.8c9.21,0,17.64,3.34,24.15,8.88,8.04,6.84,13.13,17.03,13.13,28.41h0Z"/>
            <path class="cls-9" d="m404.22,37.15v.02c-3.71-8.09-10.95-13.72-16.89-17.2-6.51-5.54-14.94-8.88-24.15-8.88H48.38c-6.91,0-13.38,1.88-18.93,5.15-4.52,1.94-16.29,8.04-22.11,20.92h0C10.55,19.84,25.74,6.72,44,6.72h323.56c18.25,0,33.44,13.12,36.66,30.44Z"/>
            <path class="cls-10" d="m48.91,96.77c44.41-3.37,215.98-7.7,311.64,0H48.91Z"/>
            <path class="cls-5" d="m63.43,85.67s69.69,2.95,149.31,2.95,147.8-2.95,147.8-2.95H63.43Z"/>
            <path class="cls-3" d="m55.81,0s67.85,4.58,148.92,4.58S358.51,0,358.51,0H55.81Z"/>
            <path class="cls-2" d="m47.85,0s-23.31,12.19-30.64,11.1C25.51,4.17,36.2,0,47.85,0Z"/>
            <path class="cls-4" d="m399.91,15.24h0c-17.61-2.61-28.73-14.93-28.73-14.93h0c10.49,1.22,19.9,5.99,26.99,13.08.6.6,1.18,1.21,1.74,1.84Z"/>
            <path class="cls-6" d="m376.01,1.14s.9,5.95,9.08,3.11c0,0-6.44-2.59-9.08-3.11Z"/>
          </g>
        </g>
      </g>
    </g>
  </g>
</svg>